# xmcd
#
# Track frame offsets: 
#        150
#        21857
#        46436
#        68013
#        92967
#        117704
#        137548
#        161031
#        180778
#        197579
#        212660
#
# Disc length: 3147 seconds
#
# Revision: 1
# Processed by: cddbd v1.5.2PL0 Copyright (c) Steve Scherf et al.
# Submitted via: ExactAudioCopy v0.95b4
#
DISCID=960c490b
DTITLE=Various Artist - Playboy Lounge [CD 1)
DYEAR=2003
DGENRE=Electronic
TTITLE0=Rae and Christian - Hold Us Down (Faze Action Reggae Mix)
TTITLE1=Herbert - I'll Do It
TTITLE2=Ursula Rucker Vs. M.A.D. - 7
TTITLE3=Fragile State - Every Day A Story (4 Hero Electric Fusion Remi
TTITLE3=x)
TTITLE4=Edge Of Motion - Memories Of The Future
TTITLE5=Takyo - Inspirations
TTITLE6=Mettle Music - Better Days (Deep Mix)
TTITLE7=Celtic Sound System - Dingle Dawn
TTITLE8=Blackshore - Esotonic (Open Mix)
TTITLE9=Second Nature - Takin You Back (Downtime Mix)
TTITLE10=Jazz Project - Blunted (Four AM Mix)
EXTD=
EXTT0=
EXTT1=
EXTT2=
EXTT3=
EXTT4=
EXTT5=
EXTT6=
EXTT7=
EXTT8=
EXTT9=
EXTT10=
PLAYORDER=
